<svg width="135" height="63" viewBox="0 0 135 63" fill="none" xmlns="http://www.w3.org/2000/svg">
<path d="M62.4635 20.6012H34.2426L32.4559 27.9396H60.6768L56.5377 45.2487H28.3152L24.1761 62.7448H0L15.051 0H67.4481L62.4635 20.6012Z" fill="#896CFE"/>
<path d="M114.775 0C125.217 0 128.322 0.56414 131.426 2.72797C133.778 4.42039 135.001 7.33692 135.001 11.1004C135.001 17.1205 131.897 23.8948 127.57 27.0927C125.311 28.7851 122.396 29.9149 117.692 30.9489L117.597 31.3245C122.019 31.9829 122.959 32.2658 124.464 33.1127C127.192 34.8052 128.604 37.3446 128.604 41.0154C128.604 48.918 123.806 57.1019 117.22 60.394C113.834 61.9937 109.225 62.7464 101.511 62.7464H60.5898L75.6408 0.00154533H114.775V0Z" fill="#896CFE"/>
<path d="M111.004 30.359C108.738 29.9974 106.763 28.6697 105.559 26.7578L102.466 33.2539C104.528 35.138 107.12 36.4178 109.962 36.8722C111.761 37.1596 113.452 35.9355 113.739 34.1365C114.028 32.3374 112.803 30.6465 111.004 30.359Z" fill="#E2F163"/>
<path d="M86.6231 43.8803C87.8812 43.412 89.1548 42.7366 90.3495 41.8061C89.8178 41.463 89.3371 41.0983 88.9106 40.7103C87.9198 39.8108 87.2151 38.8077 86.7437 37.8139C86.552 37.4105 86.4005 37.0117 86.2769 36.6191C85.9585 36.8649 85.6324 37.0751 85.2939 37.2575C84.5845 37.6392 83.8256 37.9004 83.0435 38.0643C82.263 38.2281 81.4624 38.2946 80.7081 38.2946C79.6355 38.2946 78.6571 38.1601 77.9755 38.0272C77.6339 37.9607 77.3681 37.8958 77.1981 37.851C77.1131 37.8293 77.0543 37.8108 77.0203 37.8015L76.9925 37.7938H76.991C75.263 37.2451 73.4129 38.1941 72.8534 39.9221C72.2924 41.6547 73.2445 43.514 74.9771 44.0751C75.0791 44.1075 75.7081 44.3069 76.7128 44.5032C77.7174 44.6979 79.0961 44.8911 80.7066 44.8927C81.7143 44.8927 82.8117 44.817 83.9647 44.6068C84.8287 44.4491 85.722 44.2173 86.6231 43.8803Z" fill="#E2F163"/>
<path d="M111.36 51.9185H108.102C108.157 51.7037 108.193 51.4811 108.205 51.2508C108.208 51.1998 108.216 51.0221 108.216 50.7392C108.216 50.0762 108.174 48.8351 107.905 47.2709C107.703 46.0978 107.372 44.7439 106.817 43.3188C106.401 42.2508 105.857 41.1426 105.14 40.0546C104.602 39.24 103.967 38.4363 103.221 37.6805C102.102 36.5461 100.726 35.5182 99.0954 34.7161C99.0799 34.7083 99.0629 34.7006 99.0459 34.6929L104.341 23.5708L104.588 22.982C105.644 20.4611 104.456 17.5631 101.935 16.5075C101.581 16.3591 101.219 16.2571 100.856 16.1953C100.545 16.0793 100.225 16.0129 99.9053 15.9928C99.8296 15.9773 99.7492 15.9619 99.6611 15.9449C98.9362 15.8089 97.8249 15.6543 96.4385 15.6543C94.5915 15.6528 92.2392 15.931 89.6287 16.8722C87.0182 17.8104 84.165 19.4163 81.3288 21.9789C79.9764 23.1983 79.8698 25.2849 81.0893 26.6373C82.3087 27.9897 84.3953 28.0963 85.7477 26.8768C87.9811 24.8645 90.0537 23.7331 91.8651 23.0778C92.5684 22.8243 93.233 22.645 93.8543 22.5183L89.2639 32.2045C89.2608 32.2153 89.2577 32.2292 89.2531 32.2493C89.2407 32.3065 89.2206 32.4023 89.2005 32.5291C89.1603 32.7841 89.1171 33.1628 89.1171 33.6156C89.1171 34.1257 89.1712 34.7254 89.3365 35.3467C89.5019 35.9696 89.7724 36.611 90.2144 37.24C90.5096 37.6589 90.8821 38.0746 91.3628 38.475C91.8899 38.9139 92.5529 39.3358 93.3906 39.7145C94.2036 39.8753 94.9146 40.0932 95.5436 40.3482C96.2716 40.645 96.8898 40.9943 97.4308 41.3822C98.3752 42.0607 99.0939 42.8598 99.6688 43.7408C100.098 44.4008 100.442 45.1071 100.711 45.815C101.114 46.8768 101.349 47.9463 101.474 48.8335C101.601 49.7191 101.619 50.4193 101.619 50.7408C101.619 50.8211 101.618 50.8768 101.618 50.9077L101.616 50.9324H101.618C101.602 51.274 101.639 51.6048 101.721 51.9201H84.9981C84.3149 51.9201 83.7616 52.4734 83.7616 53.1565C83.7616 53.8397 84.3149 54.393 84.9981 54.393H111.361C112.044 54.393 112.598 53.8397 112.598 53.1565C112.596 52.4718 112.043 51.9185 111.36 51.9185Z" fill="#E2F163"/>
<path d="M79 51.916H76.0216C75.3385 51.916 74.7852 52.4693 74.7852 53.1525C74.7852 53.8356 75.3385 54.389 76.0216 54.389H79C79.6831 54.389 80.2365 53.8356 80.2365 53.1525C80.2365 52.4693 79.6831 51.916 79 51.916Z" fill="#E2F163"/>
<path d="M104.909 15.8213C107.082 15.8213 108.844 14.0595 108.844 11.8862C108.844 9.71296 107.082 7.95117 104.909 7.95117C102.735 7.95117 100.974 9.71296 100.974 11.8862C100.974 14.0595 102.735 15.8213 104.909 15.8213Z" fill="#E2F163"/>
</svg>
